<svg width="455" height="455" viewBox="0 0 455 455" fill="none" xmlns="http://www.w3.org/2000/svg">
<g clip-path="url(#clip0)">
<rect width="455" height="455" rx="37.9167" fill="#2F80ED"/>
<path d="M131.436 322.428C140.52 322.428 148.653 320.897 155.835 317.833C163.018 314.77 169.091 310.492 174.056 305C179.02 299.402 182.823 292.8 185.463 285.195C188.104 277.485 189.424 268.982 189.424 259.687V122.005H223.013V259.687C223.013 272.996 220.9 285.301 216.675 296.603C212.45 307.905 206.377 317.675 198.455 325.914C190.533 334.152 180.921 340.596 169.62 345.243C158.318 349.891 145.59 352.214 131.436 352.214C117.282 352.214 104.555 349.891 93.2527 345.243C81.9508 340.596 72.3389 334.152 64.4171 325.914C56.4952 317.675 50.4218 307.905 46.1968 296.603C41.9718 285.301 39.8593 272.996 39.8593 259.687V122.005H73.6064V259.528C73.6064 268.823 74.8739 277.326 77.4089 285.037C80.0496 292.747 83.8521 299.402 88.8164 305C93.7808 310.492 99.8542 314.77 107.037 317.833C114.219 320.897 122.352 322.428 131.436 322.428ZM416.245 300.722C418.146 300.722 419.783 301.462 421.156 302.94L434.465 317.517C425.17 328.502 413.815 337.004 400.401 343.025C387.092 349.046 371.037 352.056 352.236 352.056C335.759 352.056 320.813 349.204 307.398 343.5C294.09 337.796 282.682 329.822 273.176 319.576C263.775 309.331 256.487 297.078 251.311 282.819C246.136 268.559 243.548 252.874 243.548 235.763C243.548 218.652 246.241 202.966 251.628 188.707C257.121 174.447 264.779 162.195 274.602 151.949C284.425 141.704 296.149 133.729 309.775 128.025C323.506 122.322 338.663 119.47 355.246 119.47C371.407 119.47 385.772 122.11 398.341 127.392C410.911 132.673 421.843 139.697 431.138 148.464L420.047 164.149C419.308 165.311 418.357 166.262 417.195 167.001C416.139 167.74 414.713 168.11 412.918 168.11C410.911 168.11 408.534 167.107 405.788 165.1C403.147 163.093 399.609 160.875 395.173 158.445C390.842 155.91 385.455 153.639 379.012 151.632C372.569 149.626 364.541 148.622 354.93 148.622C343.628 148.622 333.276 150.629 323.876 154.643C314.475 158.551 306.342 164.255 299.476 171.754C292.716 179.148 287.435 188.284 283.633 199.164C279.936 209.937 278.087 222.137 278.087 235.763C278.087 249.6 280.041 261.905 283.95 272.679C287.858 283.452 293.245 292.589 300.11 300.088C306.976 307.588 315.056 313.292 324.351 317.2C333.646 321.108 343.68 323.062 354.454 323.062C361.003 323.062 366.865 322.692 372.041 321.953C377.322 321.108 382.128 319.893 386.459 318.309C390.895 316.724 395.067 314.717 398.975 312.288C402.883 309.753 406.739 306.743 410.541 303.257C411.386 302.518 412.284 301.937 413.235 301.514C414.185 300.986 415.189 300.722 416.245 300.722Z" fill="white"/>
</g>
<defs>
<clipPath id="clip0">
<path d="M0 0H455V455H0V0Z" fill="white"/>
</clipPath>
</defs>
</svg>
